{"glyphs":{"0":{"ha":1111,"x_min":200,"x_max":911,"o":"m 246 -296 l 389 -146 l 732 -146 l 867 -296 l 246 -296 m 204 386 l 354 242 l 354 -99 l 204 -235 l 204 386 m 911 -235 l 761 -92 l 761 250 l 911 386 l 911 -235 m 244 1115 l 865 1115 l 728 965 l 388 965 l 244 1115 m 200 435 l 200 1056 l 350 921 l 350 576 l 200 435 m 907 1056 l 907 435 l 757 569 l 757 913 l 907 1056 z "},"1":{"ha":1111,"x_min":200,"x_max":911,"o":"m 200 761 m 911 -235 l 761 -92 l 761 250 l 911 386 l 911 -235 m 907 1056 l 907 435 l 757 569 l 757 913 l 907 1056 z "},"2":{"ha":1111,"x_min":204,"x_max":907,"o":"m 246 -296 l 389 -146 l 732 -146 l 867 -296 l 246 -296 m 204 386 l 354 242 l 354 -99 l 204 -235 l 204 386 m 365 336 q 267 413 317 375 l 365 486 l 744 486 l 842 413 l 744 336 l 365 336 m 244 1115 l 865 1115 l 728 965 l 388 965 l 244 1115 m 907 1056 l 907 435 l 757 569 l 757 913 l 907 1056 z "},"3":{"ha":1111,"x_min":246,"x_max":913,"o":"m 250 -296 l 390 -146 l 735 -146 l 869 -296 l 250 -296 m 913 -235 l 764 -92 l 764 250 l 913 386 l 913 -235 m 367 336 q 269 413 319 375 l 367 486 l 746 486 l 843 413 l 746 336 l 367 336 m 246 1115 l 868 1115 l 732 965 l 389 965 l 246 1115 m 908 1056 l 908 435 l 760 569 l 760 913 l 908 1056 z "},"4":{"ha":1111,"x_min":200,"x_max":911,"o":"m 911 -235 l 761 -92 l 761 250 l 911 386 l 911 -235 m 365 336 q 267 413 317 375 l 365 486 l 744 486 l 842 413 l 744 336 l 365 336 m 200 435 l 200 1056 l 350 921 l 350 576 l 200 435 m 907 1056 l 907 435 l 757 569 l 757 913 l 907 1056 z "},"5":{"ha":1111,"x_min":200,"x_max":911,"o":"m 246 -296 l 389 -146 l 732 -146 l 867 -296 l 246 -296 m 911 -235 l 761 -92 l 761 250 l 911 386 l 911 -235 m 365 336 q 267 413 317 375 l 365 486 l 744 486 l 842 413 l 744 336 l 365 336 m 244 1115 l 865 1115 l 728 965 l 388 965 l 244 1115 m 200 435 l 200 1056 l 350 921 l 350 576 l 200 435 z "},"6":{"ha":1111,"x_min":200,"x_max":911,"o":"m 246 -296 l 389 -146 l 732 -146 l 867 -296 l 246 -296 m 204 386 l 354 242 l 354 -99 l 204 -235 l 204 386 m 911 -235 l 761 -92 l 761 250 l 911 386 l 911 -235 m 365 336 q 267 413 317 375 l 365 486 l 744 486 l 842 413 l 744 336 l 365 336 m 244 1115 l 865 1115 l 728 965 l 388 965 l 244 1115 m 200 435 l 200 1056 l 350 921 l 350 576 l 200 435 z "},"7":{"ha":1111,"x_min":250,"x_max":917,"o":"m 917 -235 l 768 -92 l 768 250 l 917 386 l 917 -235 m 250 1115 l 872 1115 l 736 965 l 393 965 l 250 1115 m 913 1056 l 913 435 l 764 569 l 764 913 l 913 1056 z "},"8":{"ha":1111,"x_min":200,"x_max":911,"o":"m 246 -296 l 389 -146 l 732 -146 l 867 -296 l 246 -296 m 204 386 l 354 242 l 354 -99 l 204 -235 l 204 386 m 911 -235 l 761 -92 l 761 250 l 911 386 l 911 -235 m 365 336 q 267 413 317 375 l 365 486 l 744 486 l 842 413 l 744 336 l 365 336 m 244 1115 l 865 1115 l 728 965 l 388 965 l 244 1115 m 200 435 l 200 1056 l 350 921 l 350 576 l 200 435 m 907 1056 l 907 435 l 757 569 l 757 913 l 907 1056 z "},"9":{"ha":1111,"x_min":200,"x_max":911,"o":"m 911 -235 l 761 -92 l 761 250 l 911 386 l 911 -235 m 365 336 q 267 413 317 375 l 365 486 l 744 486 l 842 413 l 744 336 l 365 336 m 244 1115 l 865 1115 l 728 965 l 388 965 l 244 1115 m 200 435 l 200 1056 l 350 921 l 350 576 l 200 435 m 907 1056 l 907 435 l 757 569 l 757 913 l 907 1056 z "},"\u0000":{"ha":1111,"x_min":0,"x_max":0,"o":""},"\r":{"ha":1111,"x_min":0,"x_max":0,"o":""},"\u0001":{"ha":1111,"x_min":0,"x_max":0,"o":""},"\u0002":{"ha":1111,"x_min":0,"x_max":0,"o":""},"\u0003":{"ha":1111,"x_min":0,"x_max":0,"o":""},"\u0004":{"ha":1111,"x_min":0,"x_max":0,"o":""},"\u0005":{"ha":1111,"x_min":0,"x_max":0,"o":""},"\u0006":{"ha":1111,"x_min":0,"x_max":0,"o":""},"\u0007":{"ha":1111,"x_min":0,"x_max":0,"o":""},"\b":{"ha":1111,"x_min":0,"x_max":0,"o":""},"\t":{"ha":1111,"x_min":0,"x_max":0,"o":""},"\n":{"ha":1111,"x_min":0,"x_max":0,"o":""},"\u000b":{"ha":1111,"x_min":0,"x_max":0,"o":""},"\f":{"ha":1111,"x_min":0,"x_max":0,"o":""},"\u000e":{"ha":1111,"x_min":0,"x_max":0,"o":""},"\u000f":{"ha":1111,"x_min":0,"x_max":0,"o":""},"\u0010":{"ha":1111,"x_min":0,"x_max":0,"o":""},"\u0011":{"ha":1111,"x_min":0,"x_max":0,"o":""},"\u0012":{"ha":1111,"x_min":0,"x_max":0,"o":""},"\u0013":{"ha":1111,"x_min":0,"x_max":0,"o":""},"\u0014":{"ha":1111,"x_min":0,"x_max":0,"o":""},"\u0015":{"ha":1111,"x_min":0,"x_max":0,"o":""},"\u0016":{"ha":1111,"x_min":0,"x_max":0,"o":""},"\u0017":{"ha":1111,"x_min":0,"x_max":0,"o":""},"\u0018":{"ha":1111,"x_min":0,"x_max":0,"o":""},"\u0019":{"ha":1111,"x_min":0,"x_max":0,"o":""},"\u001a":{"ha":1111,"x_min":0,"x_max":0,"o":""},"\u001b":{"ha":1111,"x_min":0,"x_max":0,"o":""},"\u001c":{"ha":1111,"x_min":0,"x_max":0,"o":""},"\u001d":{"ha":1111,"x_min":0,"x_max":0,"o":""},"\u001e":{"ha":1111,"x_min":0,"x_max":0,"o":""},"\u001f":{"ha":1111,"x_min":0,"x_max":0,"o":""}," ":{"ha":1111,"x_min":0,"x_max":0,"o":""},"!":{"ha":1111,"x_min":479,"x_max":632,"o":"m 629 1056 l 629 18 l 479 153 l 479 913 l 629 1056 m 483 -90 l 632 -90 l 632 -268 l 483 -268 l 483 -90 z "},"\"":{"ha":1111,"x_min":460,"x_max":651,"o":"m 460 1075 l 526 1075 l 526 899 l 460 899 l 460 1075 m 585 1075 l 651 1075 l 651 899 l 585 899 l 585 1075 z "},"#":{"ha":1111,"x_min":-157,"x_max":1268,"o":"m 876 683 l 1268 685 l 956 526 l 856 526 l 832 350 l 1213 351 l 901 192 l 811 192 l 753 -246 l 638 88 l 651 192 l 367 190 l 308 -246 l 192 88 l 206 190 l -157 189 l 157 349 l 226 349 l 251 524 l -101 522 l 213 682 l 272 682 l 333 1133 l 447 804 l 431 682 l 718 683 l 778 1133 l 892 804 l 876 683 m 696 525 l 410 524 l 388 349 l 672 350 l 696 525 z "},"$":{"ha":1111,"x_min":200,"x_max":911,"o":"m 246 -226 l 389 -76 l 424 -76 l 424 406 l 365 406 q 267 482 317 444 l 365 556 l 424 556 l 424 1035 l 388 1035 l 244 1185 l 424 1185 l 424 1296 l 503 1296 l 503 1185 l 604 1185 l 604 1296 l 682 1296 l 682 1185 l 865 1185 l 728 1035 l 682 1035 l 682 556 l 744 556 l 842 482 l 744 406 l 682 406 l 682 -76 l 732 -76 l 867 -226 l 682 -226 l 682 -289 l 604 -289 l 604 -226 l 503 -226 l 503 -289 l 424 -289 l 424 -226 l 246 -226 m 911 -165 l 761 -22 l 761 319 l 911 456 l 911 -165 m 200 504 l 200 1125 l 350 990 l 350 646 l 200 504 m 503 1035 l 503 556 l 604 556 l 604 1035 l 503 1035 m 503 406 l 503 -76 l 604 -76 l 604 406 l 503 406 z "},"%":{"ha":1111,"x_min":251,"x_max":860,"o":"m 796 744 l 319 -200 l 319 153 l 796 1093 l 796 744 m 682 339 l 860 339 l 860 161 l 682 161 l 682 339 m 251 743 l 429 743 l 429 565 l 251 565 l 251 743 z "},"&":{"ha":1111,"x_min":119,"x_max":992,"o":"m 942 333 l 921 128 l 868 83 l 939 31 q 992 -79 965 -24 l 872 -103 l 753 -14 l 426 -289 l 226 -254 l 456 -78 l 458 -76 q 463 -74 461 -75 q 471 -67 467 -72 q 478 -60 475 -61 l 636 74 l 296 329 l 242 440 l 364 465 l 751 172 l 942 333 m 121 386 l 271 242 l 271 -99 l 121 -235 l 121 386 m 161 1115 l 563 1115 l 426 965 l 306 965 l 161 1115 m 119 435 l 119 1056 l 268 921 l 268 576 l 119 435 m 633 1083 l 633 782 l 483 917 l 483 940 l 633 1083 z "},"'":{"ha":1111,"x_min":468,"x_max":643,"o":"m 468 1311 l 643 1311 l 643 968 l 468 968 l 468 1311 z "},"(":{"ha":1111,"x_min":361,"x_max":750,"o":"m 406 -296 l 549 -146 l 614 -146 l 750 -296 l 406 -296 m 365 386 l 514 242 l 514 -99 l 365 -235 l 365 386 m 404 1115 l 746 1115 l 611 965 l 546 965 l 404 1115 m 361 435 l 361 1056 l 510 921 l 510 576 l 361 435 z "},")":{"ha":1111,"x_min":361,"x_max":750,"o":"m 706 -296 l 361 -296 l 497 -146 l 563 -146 l 706 -296 m 746 386 l 746 -235 l 597 -99 l 597 242 l 746 386 m 707 1115 l 565 965 l 500 965 l 365 1115 l 707 1115 m 750 435 l 601 576 l 601 921 l 750 1056 l 750 435 z "},"*":{"ha":1111,"x_min":268,"x_max":843,"o":"m 365 336 q 268 413 317 376 l 365 486 l 375 486 l 368 494 l 354 614 l 474 599 l 482 593 l 482 603 q 556 699 518 647 l 629 603 l 629 593 l 638 599 l 757 614 l 743 494 l 736 486 l 746 486 l 843 413 l 746 336 l 736 336 l 743 329 l 757 210 l 638 226 l 629 231 l 629 222 l 556 125 l 482 222 l 482 231 l 474 226 l 354 210 l 368 329 l 375 336 l 365 336 m 375 336 l 482 336 l 482 231 l 556 306 l 525 336 l 482 336 l 482 381 l 449 413 l 375 336 m 629 593 l 556 518 l 586 486 l 629 486 l 629 443 l 663 413 l 736 486 l 629 486 l 629 593 z "},"+":{"ha":1111,"x_min":268,"x_max":843,"o":"m 365 336 q 268 413 317 376 l 365 486 l 482 486 l 482 603 q 556 699 518 647 l 629 603 l 629 486 l 746 486 l 843 413 l 746 336 l 629 336 l 629 222 l 556 125 l 482 222 l 482 336 l 365 336 z "},",":{"ha":139,"x_min":0,"x_max":178,"o":"m 0 131 l 176 131 l 176 -47 l 0 -47 l 0 131 m 178 -93 q 120 -136 147 -106 q 76 -201 93 -167 q 47 -267 60 -235 q 26 -319 35 -299 q 14 -340 18 -340 q 6 -292 8 -340 q 1 -93 4 -243 l 178 -93 z "},"-":{"ha":1111,"x_min":268,"x_max":843,"o":"m 365 336 q 268 413 317 376 l 365 486 l 746 486 l 843 413 l 746 336 l 365 336 z "},".":{"ha":139,"x_min":0,"x_max":175,"o":"m 0 -90 l 175 -90 l 175 -268 l 0 -268 l 0 -90 z "},"/":{"ha":1111,"x_min":317,"x_max":794,"o":"m 794 744 l 317 -200 l 317 153 l 794 1093 l 794 744 z "},":":{"ha":1111,"x_min":468,"x_max":643,"o":"m 468 400 l 643 400 l 643 226 l 468 226 l 468 400 m 468 813 l 643 813 l 643 635 l 468 635 l 468 813 z "},";":{"ha":1111,"x_min":467,"x_max":644,"o":"m 467 457 l 643 457 l 643 296 l 468 296 l 468 281 l 621 281 q 504 92 560 238 q 482 47 486 47 q 468 281 472 47 l 467 281 l 467 457 m 467 825 l 643 825 l 643 647 l 467 647 l 467 825 m 643 294 q 644 294 644 294 l 644 296 l 643 296 l 643 294 m 643 294 l 643 281 l 621 281 q 632 288 625 282 q 643 294 639 293 z "},"<":{"ha":1111,"x_min":118,"x_max":993,"o":"m 644 28 l 118 408 l 468 407 l 993 28 l 644 28 m 644 865 l 993 867 l 468 486 l 118 486 l 644 865 z "},"=":{"ha":1111,"x_min":213,"x_max":899,"o":"m 310 296 q 213 369 258 335 l 310 444 l 801 444 l 899 369 l 801 296 l 310 296 m 310 558 q 213 635 258 599 l 310 708 l 801 708 l 899 635 l 801 558 l 310 558 z "},">":{"ha":1111,"x_min":118,"x_max":993,"o":"m 467 28 l 118 28 l 643 407 l 993 408 l 467 28 m 467 865 l 993 486 l 643 486 l 118 867 l 467 865 z "},"?":{"ha":1111,"x_min":225,"x_max":886,"o":"m 368 386 l 518 242 l 518 53 l 368 -82 l 368 386 m 532 336 q 435 413 481 376 l 532 486 l 724 486 l 821 413 l 724 336 l 532 336 m 225 1115 l 846 1115 l 708 965 l 367 965 l 225 1115 m 886 1056 l 886 435 l 738 569 l 738 913 l 886 1056 m 394 -222 l 344 -186 l 440 -111 l 446 -111 l 543 -186 l 446 -260 l 440 -260 l 394 -222 z "},"@":{"ha":1111,"x_min":0,"x_max":0,"o":""},"A":{"ha":1111,"x_min":200,"x_max":911,"o":"m 204 386 l 354 242 l 354 -99 l 204 -235 l 204 386 m 911 -235 l 761 -92 l 761 250 l 911 386 l 911 -235 m 365 336 q 267 413 317 375 l 365 486 l 744 486 l 842 413 l 744 336 l 365 336 m 244 1115 l 865 1115 l 728 965 l 388 965 l 244 1115 m 200 435 l 200 1056 l 350 921 l 350 576 l 200 435 m 907 1056 l 907 435 l 757 569 l 757 913 l 907 1056 z "},"B":{"ha":1111,"x_min":200,"x_max":911,"o":"m 246 -296 l 389 -146 l 732 -146 l 867 -296 l 246 -296 m 204 386 l 354 242 l 354 -99 l 204 -235 l 204 386 m 911 -235 l 761 -92 l 761 250 l 911 386 l 911 -235 m 365 336 q 267 413 317 375 l 365 486 l 744 486 l 842 413 l 744 336 l 365 336 m 244 1115 l 865 1115 l 728 965 l 388 965 l 244 1115 m 200 435 l 200 1056 l 350 921 l 350 576 l 200 435 m 907 1056 l 907 435 l 757 569 l 757 913 l 907 1056 z "},"C":{"ha":1111,"x_min":222,"x_max":889,"o":"m 267 -296 l 410 -146 l 753 -146 l 889 -296 l 267 -296 m 226 386 l 375 242 l 375 -99 l 226 -235 l 226 386 m 265 1115 l 885 1115 l 750 965 l 407 965 l 265 1115 m 222 435 l 222 1056 l 371 921 l 371 576 l 222 435 z "},"D":{"ha":1111,"x_min":200,"x_max":911,"o":"m 246 -296 l 389 -146 l 732 -146 l 867 -296 l 246 -296 m 204 386 l 354 242 l 354 -99 l 204 -235 l 204 386 m 911 -235 l 761 -92 l 761 250 l 911 386 l 911 -235 m 244 1115 l 865 1115 l 728 965 l 388 965 l 244 1115 m 200 435 l 200 1056 l 350 921 l 350 576 l 200 435 m 907 1056 l 907 435 l 757 569 l 757 913 l 907 1056 z "},"E":{"ha":1111,"x_min":222,"x_max":889,"o":"m 267 -296 l 410 -146 l 753 -146 l 889 -296 l 267 -296 m 226 386 l 375 242 l 375 -99 l 226 -235 l 226 386 m 386 336 q 289 413 335 376 l 386 486 l 765 486 l 863 413 l 765 336 l 386 336 m 265 1115 l 885 1115 l 750 965 l 407 965 l 265 1115 m 222 435 l 222 1056 l 371 921 l 371 576 l 222 435 z "},"F":{"ha":1111,"x_min":225,"x_max":886,"o":"m 226 386 l 375 242 l 375 -99 l 226 -235 l 226 386 m 388 336 q 290 413 336 376 l 388 486 l 767 486 l 864 413 l 767 336 l 388 336 m 265 1115 l 886 1115 l 751 965 l 408 965 l 265 1115 m 225 435 l 225 1056 l 374 921 l 374 576 l 225 435 z "},"G":{"ha":1111,"x_min":200,"x_max":911,"o":"m 246 -296 l 389 -146 l 732 -146 l 867 -296 l 246 -296 m 204 386 l 354 242 l 354 -99 l 204 -235 l 204 386 m 911 -235 l 761 -92 l 761 250 l 911 386 l 911 -235 m 365 336 q 267 413 317 375 l 365 486 l 744 486 l 842 413 l 744 336 l 365 336 m 244 1115 l 865 1115 l 728 965 l 388 965 l 244 1115 m 200 435 l 200 1056 l 350 921 l 350 576 l 200 435 z "},"H":{"ha":1111,"x_min":200,"x_max":911,"o":"m 204 386 l 354 242 l 354 -99 l 204 -235 l 204 386 m 911 -235 l 761 -92 l 761 250 l 911 386 l 911 -235 m 365 336 q 267 413 317 375 l 365 486 l 744 486 l 842 413 l 744 336 l 365 336 m 200 435 l 200 1056 l 350 921 l 350 576 l 200 435 m 907 1056 l 907 435 l 757 569 l 757 913 l 907 1056 z "},"I":{"ha":1111,"x_min":479,"x_max":632,"o":"m 632 -235 l 482 -92 l 482 250 l 632 386 l 632 -235 m 629 1056 l 629 435 l 479 569 l 479 913 l 629 1056 z "},"J":{"ha":1111,"x_min":354,"x_max":757,"o":"m 757 -235 l 607 -92 l 607 250 l 757 386 l 757 -235 m 754 1056 l 754 435 l 606 569 l 606 913 l 754 1056 m 554 -128 l 697 -278 l 354 -278 l 490 -128 l 554 -128 z "},"K":{"ha":1111,"x_min":217,"x_max":893,"o":"m 368 208 l 368 -99 l 219 -235 l 219 386 l 368 208 m 658 49 q 666 42 660 47 q 675 32 672 36 q 676 31 675 31 l 678 28 l 881 -181 l 658 49 m 658 775 q 666 782 660 776 q 675 792 672 788 l 676 793 q 678 796 678 794 l 881 1004 l 658 775 m 219 386 l 368 242 l 368 -99 l 219 -235 l 219 386 m 379 336 q 285 413 329 376 l 379 486 l 386 486 l 482 413 l 386 336 l 379 336 m 217 435 l 217 1056 l 365 921 l 365 576 l 217 435 m 449 268 l 656 268 q 787 132 703 221 q 893 19 871 43 l 881 -181 l 678 28 l 676 29 q 675 32 675 31 l 658 49 l 449 268 m 449 556 l 658 775 q 666 782 660 776 q 675 792 672 788 l 676 793 q 678 796 678 794 l 881 1004 l 893 804 q 787 692 871 781 q 656 556 703 603 l 449 556 z "},"L":{"ha":1111,"x_min":222,"x_max":889,"o":"m 267 -296 l 410 -146 l 753 -146 l 889 -296 l 267 -296 m 226 386 l 375 242 l 375 -99 l 226 -235 l 226 386 m 222 435 l 222 1056 l 371 921 l 371 576 l 222 435 z "},"M":{"ha":1111,"x_min":119,"x_max":992,"o":"m 140 386 l 290 242 l 290 -99 l 140 -235 l 140 386 m 986 -235 l 836 -92 l 836 250 l 986 386 l 986 -235 m 532 742 l 539 681 l 418 692 l 139 951 l 119 1071 l 240 1060 l 519 803 l 532 742 m 138 435 l 138 889 l 288 753 l 288 576 l 138 435 m 983 889 l 983 435 l 833 569 l 833 746 l 983 889 m 579 742 l 592 803 l 871 1060 l 992 1071 l 972 951 l 693 692 l 572 681 l 579 742 z "},"N":{"ha":1111,"x_min":131,"x_max":981,"o":"m 135 504 l 135 1128 l 285 990 l 285 647 l 135 504 m 981 1128 l 981 504 l 831 642 l 831 983 l 981 1128 m 131 457 l 281 314 l 281 -29 l 131 -165 l 131 457 m 976 -165 l 826 -21 l 826 321 l 976 457 l 976 -165 m 356 717 l 356 999 l 750 335 l 750 51 l 356 717 z "},"O":{"ha":1111,"x_min":200,"x_max":911,"o":"m 246 -296 l 389 -146 l 732 -146 l 867 -296 l 246 -296 m 204 386 l 354 242 l 354 -99 l 204 -235 l 204 386 m 911 -235 l 761 -92 l 761 250 l 911 386 l 911 -235 m 244 1115 l 865 1115 l 728 965 l 388 965 l 244 1115 m 200 435 l 200 1056 l 350 921 l 350 576 l 200 435 m 907 1056 l 907 435 l 757 569 l 757 913 l 907 1056 z "},"P":{"ha":1111,"x_min":201,"x_max":910,"o":"m 206 386 l 356 242 l 356 -99 l 206 -235 l 206 386 m 365 336 q 268 413 317 376 l 365 486 l 746 486 l 843 413 l 746 336 l 365 336 m 246 1115 l 865 1115 l 731 965 l 388 965 l 246 1115 m 201 435 l 201 1056 l 351 921 l 351 576 l 201 435 m 910 1056 l 910 435 l 760 569 l 760 913 l 910 1056 z "},"Q":{"ha":1111,"x_min":200,"x_max":911,"o":"m 246 -296 l 389 -146 l 732 -146 l 867 -296 l 246 -296 m 204 386 l 354 242 l 354 -99 l 204 -235 l 204 386 m 911 -235 l 761 -92 l 761 250 l 911 386 l 911 -235 m 244 1115 l 865 1115 l 728 965 l 388 965 l 244 1115 m 200 435 l 200 1056 l 350 921 l 350 576 l 200 435 m 907 1056 l 907 435 l 757 569 l 757 913 l 907 1056 m 661 -87 l 454 -82 l 668 132 q 676 140 672 136 q 683 149 681 144 q 686 153 683 150 q 688 156 686 156 l 696 161 l 707 -40 l 661 -87 z "},"R":{"ha":1111,"x_min":201,"x_max":910,"o":"m 356 208 l 356 -99 l 206 -235 l 206 386 l 356 208 m 836 67 m 665 244 l 879 19 l 864 -181 q 661 32 665 28 q 653 40 658 36 q 644 49 647 44 l 435 268 l 665 244 m 206 386 l 356 242 l 356 -99 l 206 -235 l 206 386 m 365 336 q 268 413 317 376 l 365 486 l 746 486 l 843 413 l 746 336 l 365 336 m 246 1115 l 865 1115 l 731 965 l 388 965 l 246 1115 m 201 435 l 201 1056 l 351 921 l 351 576 l 201 435 m 910 1056 l 910 435 l 760 569 l 760 913 l 910 1056 m 435 268 l 643 268 q 774 130 689 219 q 879 19 860 40 l 864 -181 q 661 32 665 28 q 653 40 658 36 q 644 49 647 44 l 435 268 z "},"S":{"ha":1111,"x_min":200,"x_max":911,"o":"m 246 -296 l 389 -146 l 732 -146 l 867 -296 l 246 -296 m 911 -235 l 761 -92 l 761 250 l 911 386 l 911 -235 m 365 336 q 267 413 317 375 l 365 486 l 744 486 l 842 413 l 744 336 l 365 336 m 244 1115 l 865 1115 l 728 965 l 388 965 l 244 1115 m 200 435 l 200 1056 l 350 921 l 350 576 l 200 435 z "},"T":{"ha":1111,"x_min":32,"x_max":1079,"o":"m 632 -235 l 482 -92 l 482 250 l 632 386 l 632 -235 m 129 990 q 32 1064 81 1029 l 129 1139 l 982 1139 l 1079 1064 l 982 990 l 628 990 l 628 435 l 478 569 l 478 913 l 560 990 l 129 990 z "},"U":{"ha":1111,"x_min":200,"x_max":911,"o":"m 246 -296 l 389 -146 l 732 -146 l 867 -296 l 246 -296 m 204 386 l 354 242 l 354 -99 l 204 -235 l 204 386 m 911 -235 l 761 -92 l 761 250 l 911 386 l 911 -235 m 200 435 l 200 1056 l 350 921 l 350 576 l 200 435 m 907 1056 l 907 435 l 757 569 l 757 913 l 907 1056 z "},"V":{"ha":1111,"x_min":11,"x_max":1100,"o":"m 1100 744 l 622 -200 l 622 153 l 1100 1093 l 1100 744 m 11 744 l 11 1093 l 489 153 l 489 -200 l 11 744 z "},"W":{"ha":1111,"x_min":119,"x_max":992,"o":"m 971 449 l 821 593 l 821 935 l 971 1071 l 971 449 m 125 1071 l 275 926 l 275 585 l 125 449 l 125 1071 m 579 93 l 572 156 l 693 143 l 972 -115 l 992 -235 l 871 -225 l 592 33 l 579 93 m 974 400 l 974 -53 l 824 82 l 824 258 l 974 400 m 128 -53 l 128 400 l 278 265 l 278 89 l 128 -53 m 532 93 l 519 33 l 240 -225 l 119 -235 l 139 -115 l 418 143 l 539 156 l 532 93 z "},"X":{"ha":1111,"x_min":143,"x_max":968,"o":"m 143 785 l 143 1039 l 556 547 l 968 1039 l 968 785 l 663 419 l 968 56 l 968 -200 l 556 292 l 143 -200 l 143 56 l 449 419 l 143 785 z "},"Y":{"ha":1111,"x_min":247,"x_max":864,"o":"m 864 826 l 247 -187 l 247 69 l 522 521 l 586 453 l 586 625 l 864 1081 l 864 826 m 522 521 l 586 625 l 586 708 l 247 1081 l 247 814 l 522 521 z "},"Z":{"ha":1111,"x_min":244,"x_max":867,"o":"m 246 -211 l 389 -61 l 732 -61 l 867 -211 l 246 -211 m 244 1060 l 865 1060 l 728 911 l 388 911 l 244 1060 m 861 675 l 244 -103 l 244 153 l 861 926 l 861 675 z "},"[":{"ha":1111,"x_min":361,"x_max":750,"o":"m 406 -296 l 549 -146 l 614 -146 l 750 -296 l 406 -296 m 365 386 l 514 242 l 514 -99 l 365 -235 l 365 386 m 404 1115 l 746 1115 l 611 965 l 546 965 l 404 1115 m 361 435 l 361 1056 l 510 921 l 510 576 l 361 435 z "},"\\":{"ha":1111,"x_min":317,"x_max":794,"o":"m 317 744 l 317 1093 l 794 153 l 794 -200 l 317 744 z "},"]":{"ha":1111,"x_min":361,"x_max":750,"o":"m 706 -296 l 361 -296 l 497 -146 l 563 -146 l 706 -296 m 746 386 l 746 -235 l 597 -99 l 597 242 l 746 386 m 707 1115 l 565 965 l 500 965 l 365 1115 l 707 1115 m 750 435 l 601 576 l 601 921 l 750 1056 l 750 435 z "},"^":{"ha":1111,"x_min":385,"x_max":726,"o":"m 526 1081 l 592 1081 l 726 931 l 385 931 l 526 1081 z "},"_":{"ha":1111,"x_min":32,"x_max":1079,"o":"m 129 -275 q 32 -199 81 -235 l 129 -125 l 982 -125 l 1079 -199 l 982 -275 l 129 -275 z "},"`":{"ha":1111,"x_min":394,"x_max":717,"o":"m 546 1332 l 717 1035 l 565 949 l 394 1243 l 546 1332 z "},"a":{"ha":1111,"x_min":200,"x_max":911,"o":"m 204 386 l 354 242 l 354 -99 l 204 -235 l 204 386 m 911 -235 l 761 -92 l 761 250 l 911 386 l 911 -235 m 365 336 q 267 413 317 375 l 365 486 l 744 486 l 842 413 l 744 336 l 365 336 m 244 1115 l 865 1115 l 728 965 l 388 965 l 244 1115 m 200 435 l 200 1056 l 350 921 l 350 576 l 200 435 m 907 1056 l 907 435 l 757 569 l 757 913 l 907 1056 z "},"b":{"ha":1111,"x_min":200,"x_max":911,"o":"m 246 -296 l 389 -146 l 732 -146 l 867 -296 l 246 -296 m 204 386 l 354 242 l 354 -99 l 204 -235 l 204 386 m 911 -235 l 761 -92 l 761 250 l 911 386 l 911 -235 m 365 336 q 267 413 317 375 l 365 486 l 744 486 l 842 413 l 744 336 l 365 336 m 244 1115 l 865 1115 l 728 965 l 388 965 l 244 1115 m 200 435 l 200 1056 l 350 921 l 350 576 l 200 435 m 907 1056 l 907 435 l 757 569 l 757 913 l 907 1056 z "},"c":{"ha":1111,"x_min":222,"x_max":889,"o":"m 267 -296 l 410 -146 l 753 -146 l 889 -296 l 267 -296 m 226 386 l 375 242 l 375 -99 l 226 -235 l 226 386 m 265 1115 l 885 1115 l 750 965 l 407 965 l 265 1115 m 222 435 l 222 1056 l 371 921 l 371 576 l 222 435 z "},"d":{"ha":1111,"x_min":200,"x_max":911,"o":"m 246 -296 l 389 -146 l 732 -146 l 867 -296 l 246 -296 m 204 386 l 354 242 l 354 -99 l 204 -235 l 204 386 m 911 -235 l 761 -92 l 761 250 l 911 386 l 911 -235 m 244 1115 l 865 1115 l 728 965 l 388 965 l 244 1115 m 200 435 l 200 1056 l 350 921 l 350 576 l 200 435 m 907 1056 l 907 435 l 757 569 l 757 913 l 907 1056 z "},"e":{"ha":1111,"x_min":222,"x_max":889,"o":"m 267 -296 l 410 -146 l 753 -146 l 889 -296 l 267 -296 m 226 386 l 375 242 l 375 -99 l 226 -235 l 226 386 m 386 336 q 289 413 335 376 l 386 486 l 765 486 l 863 413 l 765 336 l 386 336 m 265 1115 l 885 1115 l 750 965 l 407 965 l 265 1115 m 222 435 l 222 1056 l 371 921 l 371 576 l 222 435 z "},"f":{"ha":1111,"x_min":225,"x_max":886,"o":"m 226 386 l 375 242 l 375 -99 l 226 -235 l 226 386 m 388 336 q 290 413 336 376 l 388 486 l 767 486 l 864 413 l 767 336 l 388 336 m 265 1115 l 886 1115 l 751 965 l 408 965 l 265 1115 m 225 435 l 225 1056 l 374 921 l 374 576 l 225 435 z "},"g":{"ha":1111,"x_min":200,"x_max":911,"o":"m 246 -296 l 389 -146 l 732 -146 l 867 -296 l 246 -296 m 204 386 l 354 242 l 354 -99 l 204 -235 l 204 386 m 911 -235 l 761 -92 l 761 250 l 911 386 l 911 -235 m 365 336 q 267 413 317 375 l 365 486 l 744 486 l 842 413 l 744 336 l 365 336 m 244 1115 l 865 1115 l 728 965 l 388 965 l 244 1115 m 200 435 l 200 1056 l 350 921 l 350 576 l 200 435 z "},"h":{"ha":1111,"x_min":200,"x_max":911,"o":"m 204 386 l 354 242 l 354 -99 l 204 -235 l 204 386 m 911 -235 l 761 -92 l 761 250 l 911 386 l 911 -235 m 365 336 q 267 413 317 375 l 365 486 l 744 486 l 842 413 l 744 336 l 365 336 m 200 435 l 200 1056 l 350 921 l 350 576 l 200 435 m 907 1056 l 907 435 l 757 569 l 757 913 l 907 1056 z "},"i":{"ha":1111,"x_min":479,"x_max":632,"o":"m 632 -235 l 482 -92 l 482 250 l 632 386 l 632 -235 m 629 1056 l 629 435 l 479 569 l 479 913 l 629 1056 z "},"j":{"ha":1111,"x_min":354,"x_max":757,"o":"m 757 -235 l 607 -92 l 607 250 l 757 386 l 757 -235 m 754 1056 l 754 435 l 606 569 l 606 913 l 754 1056 m 554 -128 l 697 -278 l 354 -278 l 490 -128 l 554 -128 z "},"k":{"ha":1111,"x_min":217,"x_max":893,"o":"m 368 208 l 368 -99 l 219 -235 l 219 386 l 368 208 m 658 49 q 666 42 660 47 q 675 32 672 36 q 676 31 675 31 l 678 28 l 881 -181 l 658 49 m 658 775 q 666 782 660 776 q 675 792 672 788 l 676 793 q 678 796 678 794 l 881 1004 l 658 775 m 219 386 l 368 242 l 368 -99 l 219 -235 l 219 386 m 379 336 q 285 413 329 376 l 379 486 l 386 486 l 482 413 l 386 336 l 379 336 m 217 435 l 217 1056 l 365 921 l 365 576 l 217 435 m 449 268 l 656 268 q 787 132 703 221 q 893 19 871 43 l 881 -181 l 678 28 l 676 29 q 675 32 675 31 l 658 49 l 449 268 m 449 556 l 658 775 q 666 782 660 776 q 675 792 672 788 l 676 793 q 678 796 678 794 l 881 1004 l 893 804 q 787 692 871 781 q 656 556 703 603 l 449 556 z "},"l":{"ha":1111,"x_min":222,"x_max":889,"o":"m 267 -296 l 410 -146 l 753 -146 l 889 -296 l 267 -296 m 226 386 l 375 242 l 375 -99 l 226 -235 l 226 386 m 222 435 l 222 1056 l 371 921 l 371 576 l 222 435 z "},"m":{"ha":1111,"x_min":119,"x_max":992,"o":"m 140 386 l 290 242 l 290 -99 l 140 -235 l 140 386 m 986 -235 l 836 -92 l 836 250 l 986 386 l 986 -235 m 532 742 l 539 681 l 418 692 l 139 951 l 119 1071 l 240 1060 l 519 803 l 532 742 m 138 435 l 138 889 l 288 753 l 288 576 l 138 435 m 983 889 l 983 435 l 833 569 l 833 746 l 983 889 m 579 742 l 592 803 l 871 1060 l 992 1071 l 972 951 l 693 692 l 572 681 l 579 742 z "},"n":{"ha":1111,"x_min":131,"x_max":981,"o":"m 135 504 l 135 1128 l 285 990 l 285 647 l 135 504 m 981 1128 l 981 504 l 831 642 l 831 983 l 981 1128 m 131 457 l 281 314 l 281 -29 l 131 -165 l 131 457 m 976 -165 l 826 -21 l 826 321 l 976 457 l 976 -165 m 356 717 l 356 999 l 750 335 l 750 51 l 356 717 z "},"o":{"ha":1111,"x_min":200,"x_max":911,"o":"m 246 -296 l 389 -146 l 732 -146 l 867 -296 l 246 -296 m 204 386 l 354 242 l 354 -99 l 204 -235 l 204 386 m 911 -235 l 761 -92 l 761 250 l 911 386 l 911 -235 m 244 1115 l 865 1115 l 728 965 l 388 965 l 244 1115 m 200 435 l 200 1056 l 350 921 l 350 576 l 200 435 m 907 1056 l 907 435 l 757 569 l 757 913 l 907 1056 z "},"p":{"ha":1111,"x_min":201,"x_max":910,"o":"m 206 386 l 356 242 l 356 -99 l 206 -235 l 206 386 m 365 336 q 268 413 317 376 l 365 486 l 746 486 l 843 413 l 746 336 l 365 336 m 246 1115 l 865 1115 l 731 965 l 388 965 l 246 1115 m 201 435 l 201 1056 l 351 921 l 351 576 l 201 435 m 910 1056 l 910 435 l 760 569 l 760 913 l 910 1056 z "},"q":{"ha":1111,"x_min":200,"x_max":911,"o":"m 246 -296 l 389 -146 l 732 -146 l 867 -296 l 246 -296 m 204 386 l 354 242 l 354 -99 l 204 -235 l 204 386 m 911 -235 l 761 -92 l 761 250 l 911 386 l 911 -235 m 244 1115 l 865 1115 l 728 965 l 388 965 l 244 1115 m 200 435 l 200 1056 l 350 921 l 350 576 l 200 435 m 907 1056 l 907 435 l 757 569 l 757 913 l 907 1056 m 661 -87 l 454 -82 l 668 132 q 676 140 672 136 q 683 149 681 144 q 686 153 683 150 q 688 156 686 156 l 696 161 l 707 -40 l 661 -87 z "},"r":{"ha":1111,"x_min":201,"x_max":910,"o":"m 356 208 l 356 -99 l 206 -235 l 206 386 l 356 208 m 836 67 m 665 244 l 879 19 l 864 -181 q 661 32 665 28 q 653 40 658 36 q 644 49 647 44 l 435 268 l 665 244 m 206 386 l 356 242 l 356 -99 l 206 -235 l 206 386 m 365 336 q 268 413 317 376 l 365 486 l 746 486 l 843 413 l 746 336 l 365 336 m 246 1115 l 865 1115 l 731 965 l 388 965 l 246 1115 m 201 435 l 201 1056 l 351 921 l 351 576 l 201 435 m 910 1056 l 910 435 l 760 569 l 760 913 l 910 1056 m 435 268 l 643 268 q 774 130 689 219 q 879 19 860 40 l 864 -181 q 661 32 665 28 q 653 40 658 36 q 644 49 647 44 l 435 268 z "},"s":{"ha":1111,"x_min":200,"x_max":911,"o":"m 246 -296 l 389 -146 l 732 -146 l 867 -296 l 246 -296 m 911 -235 l 761 -92 l 761 250 l 911 386 l 911 -235 m 365 336 q 267 413 317 375 l 365 486 l 744 486 l 842 413 l 744 336 l 365 336 m 244 1115 l 865 1115 l 728 965 l 388 965 l 244 1115 m 200 435 l 200 1056 l 350 921 l 350 576 l 200 435 z "},"t":{"ha":1111,"x_min":32,"x_max":1079,"o":"m 632 -235 l 482 -92 l 482 250 l 632 386 l 632 -235 m 129 990 q 32 1064 81 1029 l 129 1139 l 982 1139 l 1079 1064 l 982 990 l 628 990 l 628 435 l 478 569 l 478 913 l 560 990 l 129 990 z "},"u":{"ha":1111,"x_min":200,"x_max":911,"o":"m 246 -296 l 389 -146 l 732 -146 l 867 -296 l 246 -296 m 204 386 l 354 242 l 354 -99 l 204 -235 l 204 386 m 911 -235 l 761 -92 l 761 250 l 911 386 l 911 -235 m 200 435 l 200 1056 l 350 921 l 350 576 l 200 435 m 907 1056 l 907 435 l 757 569 l 757 913 l 907 1056 z "},"v":{"ha":1111,"x_min":11,"x_max":1100,"o":"m 1100 744 l 622 -200 l 622 153 l 1100 1093 l 1100 744 m 11 744 l 11 1093 l 489 153 l 489 -200 l 11 744 z "},"w":{"ha":1111,"x_min":119,"x_max":992,"o":"m 971 449 l 821 593 l 821 935 l 971 1071 l 971 449 m 125 1071 l 275 926 l 275 585 l 125 449 l 125 1071 m 579 93 l 572 156 l 693 143 l 972 -115 l 992 -235 l 871 -225 l 592 33 l 579 93 m 974 400 l 974 -53 l 824 82 l 824 258 l 974 400 m 128 -53 l 128 400 l 278 265 l 278 89 l 128 -53 m 532 93 l 519 33 l 240 -225 l 119 -235 l 139 -115 l 418 143 l 539 156 l 532 93 z "},"x":{"ha":1111,"x_min":143,"x_max":968,"o":"m 143 785 l 143 1039 l 556 547 l 968 1039 l 968 785 l 663 419 l 968 56 l 968 -200 l 556 292 l 143 -200 l 143 56 l 449 419 l 143 785 z "},"y":{"ha":1111,"x_min":247,"x_max":864,"o":"m 864 826 l 247 -187 l 247 69 l 522 521 l 586 453 l 586 625 l 864 1081 l 864 826 m 522 521 l 586 625 l 586 708 l 247 1081 l 247 814 l 522 521 z "},"z":{"ha":1111,"x_min":244,"x_max":867,"o":"m 246 -211 l 389 -61 l 732 -61 l 867 -211 l 246 -211 m 244 1060 l 865 1060 l 728 911 l 388 911 l 244 1060 m 861 675 l 244 -103 l 244 153 l 861 926 l 861 675 z "},"{":{"ha":1111,"x_min":258,"x_max":853,"o":"m 508 -296 l 653 -146 l 717 -146 l 853 -296 l 508 -296 m 468 386 l 617 242 l 617 -99 l 468 -235 l 468 386 m 507 1115 l 851 1115 l 714 965 l 651 965 l 507 1115 m 465 435 l 465 1056 l 614 921 l 614 576 l 465 435 m 258 379 l 258 444 l 407 579 l 407 236 l 258 379 z "},"|":{"ha":1111,"x_min":479,"x_max":632,"o":"m 632 1056 l 632 751 q 631 741 632 747 q 629 731 629 735 l 629 -219 l 479 -83 l 479 879 l 482 879 l 482 913 l 632 1056 z "},"}":{"ha":1111,"x_min":258,"x_max":853,"o":"m 603 -296 l 258 -296 l 394 -146 l 458 -146 l 603 -296 m 643 386 l 643 -235 l 494 -99 l 494 242 l 643 386 m 604 1115 l 460 965 l 397 965 l 260 1115 l 604 1115 m 646 435 l 497 576 l 497 921 l 646 1056 l 646 435 m 853 379 l 704 236 l 704 579 l 853 444 l 853 379 z "},"~":{"ha":1111,"x_min":268,"x_max":843,"o":"m 365 336 q 268 413 317 376 l 365 486 l 746 486 l 843 413 l 746 336 l 365 336 z "},"":{"ha":1111,"x_min":0,"x_max":0,"o":""},"":{"ha":1111,"x_min":0,"x_max":0,"o":""},"":{"ha":1111,"x_min":0,"x_max":0,"o":""},"":{"ha":1111,"x_min":0,"x_max":0,"o":""},"":{"ha":1111,"x_min":0,"x_max":0,"o":""},"":{"ha":1111,"x_min":0,"x_max":0,"o":""},"":{"ha":1111,"x_min":0,"x_max":0,"o":""},"":{"ha":1111,"x_min":0,"x_max":0,"o":""},"":{"ha":1111,"x_min":0,"x_max":0,"o":""},"":{"ha":1111,"x_min":0,"x_max":0,"o":""},"":{"ha":1111,"x_min":0,"x_max":0,"o":""},"":{"ha":1111,"x_min":0,"x_max":0,"o":""},"":{"ha":1111,"x_min":0,"x_max":0,"o":""},"":{"ha":1111,"x_min":0,"x_max":0,"o":""},"":{"ha":1111,"x_min":0,"x_max":0,"o":""},"":{"ha":1111,"x_min":0,"x_max":0,"o":""},"":{"ha":1111,"x_min":0,"x_max":0,"o":""},"":{"ha":1111,"x_min":0,"x_max":0,"o":""},"":{"ha":1111,"x_min":0,"x_max":0,"o":""},"":{"ha":1111,"x_min":0,"x_max":0,"o":""},"":{"ha":1111,"x_min":0,"x_max":0,"o":""},"":{"ha":1111,"x_min":0,"x_max":0,"o":""},"":{"ha":1111,"x_min":0,"x_max":0,"o":""},"":{"ha":1111,"x_min":0,"x_max":0,"o":""},"":{"ha":1111,"x_min":0,"x_max":0,"o":""},"":{"ha":1111,"x_min":0,"x_max":0,"o":""},"":{"ha":1111,"x_min":0,"x_max":0,"o":""},"":{"ha":1111,"x_min":0,"x_max":0,"o":""},"":{"ha":1111,"x_min":0,"x_max":0,"o":""},"":{"ha":1111,"x_min":0,"x_max":0,"o":""},"":{"ha":1111,"x_min":0,"x_max":0,"o":""},"":{"ha":1111,"x_min":0,"x_max":0,"o":""},"":{"ha":1111,"x_min":0,"x_max":0,"o":""}," ":{"ha":1111,"x_min":0,"x_max":0,"o":""},"¡":{"ha":1111,"x_min":479,"x_max":632,"o":"m 632 -235 l 482 -92 l 482 250 l 632 386 l 632 -235 m 629 1056 l 629 435 l 479 569 l 479 913 l 629 1056 z "},"¢":{"ha":1111,"x_min":222,"x_max":889,"o":"m 267 -296 l 410 -146 l 460 -146 l 460 965 l 407 965 l 265 1115 l 460 1115 l 460 1121 l 608 1264 l 608 1115 l 885 1115 l 750 965 l 608 965 l 608 -146 l 753 -146 l 889 -296 l 608 -296 l 608 -440 l 460 -306 l 460 -296 l 267 -296 m 226 386 l 375 242 l 375 -99 l 226 -235 l 226 386 m 222 435 l 222 1056 l 371 921 l 371 576 l 222 435 z "},"£":{"ha":1111,"x_min":126,"x_max":985,"o":"m 126 -296 l 269 -146 l 319 -146 l 319 -235 l 417 -146 l 850 -146 l 985 -296 l 126 -296 m 300 336 q 204 413 250 376 l 300 486 l 318 486 l 318 435 l 372 486 l 722 486 l 819 413 l 722 336 l 371 336 l 319 386 l 319 336 l 300 336 m 360 1115 l 843 1115 l 707 965 l 504 965 l 360 1115 m 643 1317 l 707 1317 l 843 1167 l 499 1167 l 643 1317 m 417 -146 l 468 -99 l 468 242 l 371 336 l 319 336 l 319 -146 l 417 -146 m 318 486 l 372 486 l 468 576 l 468 921 l 318 1056 l 318 486 z "},"¤":{"ha":1111,"x_min":435,"x_max":676,"o":"m 657 664 l 676 644 l 672 565 l 668 568 l 647 589 l 647 632 l 604 632 l 574 663 l 657 664 m 657 413 l 574 414 l 614 454 l 647 454 l 647 486 q 672 510 668 507 l 676 431 l 657 413 m 454 413 l 435 431 l 439 510 l 443 507 q 472 478 443 507 l 472 454 l 497 454 l 538 414 l 454 413 m 454 664 l 538 663 l 507 632 l 472 632 l 472 597 l 443 568 l 439 565 l 435 644 l 454 664 m 647 589 l 604 632 l 507 632 l 472 597 l 472 478 l 497 454 l 614 454 l 647 486 l 647 589 z "},"¥":{"ha":1111,"x_min":143,"x_max":968,"o":"m 240 463 q 143 538 189 500 l 240 611 l 450 611 l 535 521 l 590 611 l 599 611 l 599 625 l 876 1081 l 876 826 l 746 611 l 871 611 l 968 538 l 871 463 l 656 463 l 585 347 l 871 347 l 968 274 l 871 197 l 493 197 l 260 -187 l 260 69 l 338 197 l 240 197 q 143 274 189 238 l 240 347 l 429 347 l 500 463 l 240 463 m 599 625 l 599 708 l 260 1081 l 260 814 l 450 611 l 590 611 l 599 625 m 589 463 l 599 453 l 599 463 l 589 463 z "},"¦":{"ha":1111,"x_min":479,"x_max":632,"o":"m 632 -235 l 482 -92 l 482 250 l 632 386 l 632 -235 m 629 1056 l 629 435 l 479 569 l 479 913 l 629 1056 z "},"§":{"ha":1111,"x_min":201,"x_max":910,"o":"m 864 -239 l 242 -239 l 378 -89 l 721 -89 l 864 -239 m 843 135 q 746 58 794 97 l 365 58 l 268 135 l 365 208 l 746 208 l 843 135 m 910 157 l 760 299 l 760 643 l 910 778 l 910 157 m 201 778 l 351 635 l 351 292 l 201 157 l 201 778 m 260 1188 l 883 1188 l 746 1038 l 404 1038 l 260 1188 m 843 801 q 746 725 794 764 l 365 725 l 268 801 l 365 875 l 746 875 l 843 801 m 756 -43 l 756 -36 l 906 108 l 906 -179 l 756 -43 m 367 990 l 367 982 l 218 838 l 218 1128 l 367 990 z "},"¨":{"ha":1111,"x_min":418,"x_max":693,"o":"m 418 1257 l 526 1257 l 526 1149 l 418 1149 l 418 1257 m 585 1257 l 693 1257 l 693 1149 l 585 1149 l 585 1257 z "},"©":{"ha":1111,"x_min":200,"x_max":911,"o":"m 246 -296 l 389 -146 l 732 -146 l 867 -296 l 246 -296 m 204 386 l 354 242 l 354 -99 l 204 -235 l 204 386 m 911 -235 l 761 -92 l 761 250 l 911 386 l 911 -235 m 244 1115 l 865 1115 l 728 965 l 388 965 l 244 1115 m 200 435 l 200 1056 l 350 921 l 350 576 l 200 435 m 907 1056 l 907 435 l 757 569 l 757 913 l 907 1056 m 446 128 l 504 189 l 642 189 l 696 128 l 446 128 m 429 400 l 489 343 l 489 207 l 429 151 l 429 400 m 446 693 l 694 693 l 642 633 l 504 633 l 446 693 m 429 419 l 429 668 l 489 614 l 489 476 l 429 419 z "},"ª":{"ha":1111,"x_min":468,"x_max":643,"o":"m 468 979 l 643 979 l 643 913 l 468 913 l 468 979 m 483 1138 l 513 1110 l 513 1040 l 483 1014 l 483 1138 m 625 1014 l 594 1042 l 594 1111 l 625 1138 l 625 1014 m 506 1135 l 496 1142 l 515 1158 l 592 1158 l 611 1142 l 592 1129 l 515 1129 l 506 1135 m 490 1283 l 615 1283 l 588 1253 l 519 1253 l 490 1283 m 483 1147 l 483 1271 l 513 1243 l 513 1176 l 483 1147 m 624 1271 l 624 1147 l 594 1174 l 594 1242 l 624 1271 z "},"«":{"ha":1111,"x_min":368,"x_max":743,"o":"m 742 676 l 742 661 q 742 649 742 657 q 743 638 743 642 l 743 333 l 593 476 l 592 542 l 742 676 m 518 676 l 518 661 q 519 649 518 657 q 519 638 519 642 l 519 333 l 369 476 l 368 542 l 518 676 z "},"¬":{"ha":1111,"x_min":83,"x_max":1028,"o":"m 181 336 q 83 413 129 376 l 181 486 l 811 486 l 907 413 l 811 336 l 181 336 m 1028 194 q 954 97 989 146 l 879 194 l 879 268 l 954 365 l 1028 268 l 1028 194 z "},"­":{"ha":1111,"x_min":338,"x_max":774,"o":"m 435 336 q 338 413 386 376 l 435 486 l 676 486 l 774 413 l 676 336 l 435 336 z "},"®":{"ha":1111,"x_min":200,"x_max":911,"o":"m 474 319 l 474 196 l 414 142 l 414 390 l 474 319 m 667 261 m 599 333 l 683 244 l 676 163 l 597 247 q 593 252 596 249 q 589 257 590 256 l 506 344 l 599 333 m 246 -296 l 389 -146 l 732 -146 l 867 -296 l 246 -296 m 204 386 l 354 242 l 354 -99 l 204 -235 l 204 386 m 911 -235 l 761 -92 l 761 250 l 911 386 l 911 -235 m 244 1115 l 865 1115 l 728 965 l 388 965 l 244 1115 m 200 435 l 200 1056 l 350 921 l 350 576 l 200 435 m 907 1056 l 907 435 l 757 569 l 757 913 l 907 1056 m 414 390 l 474 333 l 474 196 l 414 142 l 414 390 m 458 386 l 439 400 l 478 431 l 629 431 l 671 400 l 629 369 l 478 369 l 458 386 m 431 682 l 678 682 l 624 622 l 488 622 l 431 682 m 414 410 l 414 658 l 472 604 l 472 468 l 414 410 m 696 658 l 696 410 l 636 465 l 636 603 l 696 658 m 506 344 l 589 344 q 642 289 607 325 q 683 244 676 253 l 676 163 l 597 247 q 593 252 596 249 q 589 257 590 256 l 506 344 z "},"¯":{"ha":1111,"x_min":468,"x_max":643,"o":"m 468 1090 l 643 1090 l 643 1024 l 468 1024 l 468 1090 z "},"°":{"ha":1111,"x_min":468,"x_max":643,"o":"m 468 1257 l 643 1257 l 643 1079 l 468 1079 l 468 1257 z "},"±":{"ha":1111,"x_min":268,"x_max":843,"o":"m 365 336 q 268 413 317 376 l 365 486 l 482 486 l 482 603 q 556 699 518 647 l 629 603 l 629 486 l 746 486 l 843 413 l 746 336 l 629 336 l 629 222 l 556 125 l 482 222 l 482 336 l 365 336 m 365 -67 q 268 10 317 -26 l 365 83 l 746 83 l 843 10 l 746 -67 l 365 -67 z "},"²":{"ha":1111,"x_min":450,"x_max":661,"o":"m 464 838 l 506 883 l 607 883 l 649 838 l 464 838 m 450 1042 l 496 999 l 496 896 l 450 854 l 450 1042 m 499 1028 l 468 1050 l 499 1072 l 613 1072 l 643 1050 l 613 1028 l 499 1028 m 463 1261 l 647 1261 l 607 1217 l 504 1217 l 463 1261 m 661 1242 l 661 1056 l 615 1097 l 615 1199 l 661 1242 z "},"³":{"ha":1111,"x_min":456,"x_max":656,"o":"m 456 824 l 500 869 l 603 869 l 643 824 l 456 824 m 656 842 l 611 885 l 611 989 l 656 1028 l 656 842 m 476 1024 l 464 1035 l 492 1060 l 606 1060 l 635 1035 l 606 1014 l 492 1014 l 476 1024 m 456 1247 l 643 1247 l 601 1201 l 500 1201 l 456 1247 m 654 1229 l 654 1042 l 611 1083 l 611 1185 l 654 1229 z "},"´":{"ha":1111,"x_min":394,"x_max":717,"o":"m 565 1332 l 717 1243 l 546 949 l 394 1035 l 565 1332 z "},"µ":{"ha":1111,"x_min":103,"x_max":1008,"o":"m 107 497 l 257 354 l 257 11 l 150 -100 l 257 -100 l 257 -182 l 107 -318 l 107 497 m 814 -40 l 664 101 l 664 361 l 814 497 l 814 -40 m 103 532 l 103 1056 l 254 921 l 254 675 l 103 532 m 811 1056 l 811 532 l 661 667 l 661 879 l 663 879 l 663 913 l 811 1056 m 1008 103 l 1008 39 l 857 -97 l 857 247 l 1008 103 m 257 -100 l 772 -100 l 635 50 l 294 50 l 257 11 l 257 -100 z "},"¶":{"ha":1111,"x_min":274,"x_max":838,"o":"m 629 1056 l 629 -219 l 479 -83 l 479 913 l 629 1056 m 838 1056 l 838 -219 l 688 -83 l 688 913 l 838 1056 m 274 664 l 274 728 l 424 864 l 424 519 l 274 664 z "},"·":{"ha":1111,"x_min":468,"x_max":643,"o":"m 468 632 l 643 632 l 643 454 l 468 454 l 468 632 z "},"¸":{"ha":1111,"x_min":394,"x_max":717,"o":"m 565 96 l 717 8 l 546 -289 l 394 -200 l 565 96 z "},"¹":{"ha":1111,"x_min":532,"x_max":579,"o":"m 579 883 l 532 925 l 532 1029 l 579 1069 l 579 883 m 576 1269 l 576 1083 l 532 1125 l 532 1228 l 576 1269 z "},"º":{"ha":1111,"x_min":468,"x_max":643,"o":"m 468 1353 l 643 1353 l 643 1176 l 468 1176 l 468 1353 m 468 1090 l 643 1090 l 643 1024 l 468 1024 l 468 1090 z "},"»":{"ha":1111,"x_min":368,"x_max":743,"o":"m 369 333 l 369 351 q 369 363 369 356 q 368 374 368 369 l 368 676 l 518 535 l 519 468 l 369 333 m 593 333 l 593 351 q 592 363 593 356 q 592 374 592 369 l 592 676 l 742 535 l 743 468 l 593 333 z "},"¼":{"ha":1111,"x_min":256,"x_max":856,"o":"m 763 744 l 286 -200 l 286 153 l 764 1093 l 763 744 m 300 618 l 257 663 l 257 765 l 300 806 l 300 618 m 300 1006 l 300 915 q 299 913 300 914 q 299 910 299 911 l 299 819 l 256 861 l 256 963 l 300 1006 m 856 -118 l 813 -74 l 813 -62 l 811 -62 l 811 29 l 856 69 l 856 -118 m 676 67 l 664 78 l 692 100 l 806 100 l 835 78 l 806 56 l 692 56 l 676 67 m 643 83 l 643 269 l 688 229 l 688 126 l 643 83 m 854 269 l 854 83 l 811 125 l 811 226 l 854 269 z "},"½":{"ha":1111,"x_min":257,"x_max":854,"o":"m 764 744 l 286 -200 l 286 153 l 764 1093 l 764 744 m 300 618 l 257 663 l 257 765 l 300 806 l 300 618 m 300 1006 l 300 819 l 257 861 l 257 963 l 300 1006 m 657 -121 l 701 -76 l 803 -76 l 844 -121 l 657 -121 m 643 83 l 688 40 l 688 -61 l 643 -103 l 643 83 m 676 81 l 664 90 l 693 115 l 807 115 l 835 90 l 807 69 l 693 69 l 676 81 m 656 301 l 843 301 l 803 258 l 699 258 l 656 301 m 854 285 l 854 97 l 811 139 l 811 240 l 854 285 z "},"¾":{"ha":1111,"x_min":226,"x_max":885,"o":"m 792 744 l 314 -200 l 314 153 l 792 1093 l 792 744 m 228 603 l 269 646 l 374 646 l 414 603 l 228 603 m 428 618 l 383 663 l 383 765 l 428 806 l 428 618 m 249 803 l 235 814 l 261 836 l 376 836 l 406 814 l 376 792 l 261 792 l 249 803 m 226 1024 l 414 1024 l 371 981 l 269 981 l 226 1024 m 426 1006 l 426 819 l 381 861 l 381 963 l 426 1006 m 885 -118 l 840 -74 l 840 29 l 885 69 l 885 -118 m 721 56 q 692 78 706 67 l 721 100 l 835 100 l 864 78 l 835 56 l 721 56 m 672 83 l 672 269 l 715 229 l 715 126 l 672 83 m 883 269 l 883 83 l 838 125 l 838 226 l 883 269 z "},"¿":{"ha":1111,"x_min":225,"x_max":886,"o":"m 743 468 l 593 613 l 593 803 l 743 939 l 743 468 m 629 482 l 676 443 l 579 368 l 388 368 l 290 443 l 388 518 l 579 518 l 629 482 m 886 -260 l 265 -260 l 403 -110 l 711 -110 l 711 -111 l 744 -111 l 886 -260 m 225 -200 l 225 421 l 374 286 l 374 -57 l 225 -200 m 671 1115 q 767 1040 715 1081 l 671 965 l 665 965 l 568 1040 l 665 1115 l 671 1115 z "},"À":{"ha":1111,"x_min":200,"x_max":911,"o":"m 204 386 l 354 242 l 354 -99 l 204 -235 l 204 386 m 911 -235 l 761 -92 l 761 250 l 911 386 l 911 -235 m 365 336 q 267 413 317 375 l 365 486 l 744 486 l 842 413 l 744 336 l 365 336 m 200 435 l 200 1056 l 350 921 l 350 576 l 200 435 m 907 1056 l 907 435 l 757 569 l 757 913 l 907 1056 m 497 1115 l 424 1243 l 575 1332 l 700 1115 l 865 1115 l 728 965 l 624 965 l 594 949 l 585 965 l 388 965 l 244 1115 l 497 1115 z "},"Á":{"ha":1111,"x_min":200,"x_max":911,"o":"m 204 386 l 354 242 l 354 -99 l 204 -235 l 204 386 m 911 -235 l 761 -92 l 761 250 l 911 386 l 911 -235 m 365 336 q 267 413 317 375 l 365 486 l 744 486 l 842 413 l 744 336 l 365 336 m 200 435 l 200 1056 l 350 921 l 350 576 l 200 435 m 907 1056 l 907 435 l 757 569 l 757 913 l 907 1056 m 594 1332 l 746 1243 l 672 1115 l 865 1115 l 728 965 l 585 965 l 575 949 l 546 965 l 388 965 l 244 1115 l 469 1115 l 594 1332 z "},"Â":{"ha":1111,"x_min":200,"x_max":911,"o":"m 204 386 l 354 242 l 354 -99 l 204 -235 l 204 386 m 911 -235 l 761 -92 l 761 250 l 911 386 l 911 -235 m 365 336 q 267 413 317 375 l 365 486 l 744 486 l 842 413 l 744 336 l 365 336 m 244 1115 l 865 1115 l 728 965 l 388 965 l 244 1115 m 200 435 l 200 1056 l 350 921 l 350 576 l 200 435 m 907 1056 l 907 435 l 757 569 l 757 913 l 907 1056 m 526 1317 l 589 1317 l 726 1167 l 383 1167 l 526 1317 z "},"Ã":{"ha":1111,"x_min":200,"x_max":911,"o":"m 204 386 l 354 242 l 354 -99 l 204 -235 l 204 386 m 911 -235 l 761 -92 l 761 250 l 911 386 l 911 -235 m 365 336 q 267 413 317 375 l 365 486 l 744 486 l 842 413 l 744 336 l 365 336 m 244 1115 l 865 1115 l 728 965 l 388 965 l 244 1115 m 200 435 l 200 1056 l 350 921 l 350 576 l 200 435 m 907 1056 l 907 435 l 757 569 l 757 913 l 907 1056 m 365 1169 q 267 1246 317 1208 l 365 1319 l 744 1319 l 842 1246 l 744 1169 l 365 1169 z "},"Ä":{"ha":1111,"x_min":200,"x_max":911,"o":"m 204 386 l 354 242 l 354 -99 l 204 -235 l 204 386 m 911 -235 l 761 -92 l 761 250 l 911 386 l 911 -235 m 365 336 q 267 413 317 375 l 365 486 l 744 486 l 842 413 l 744 336 l 365 336 m 244 1115 l 865 1115 l 728 965 l 388 965 l 244 1115 m 200 435 l 200 1056 l 350 921 l 350 576 l 200 435 m 907 1056 l 907 435 l 757 569 l 757 913 l 907 1056 m 424 1269 l 515 1269 l 515 1183 l 424 1183 l 424 1269 m 589 1269 l 682 1269 l 682 1183 l 589 1183 l 589 1269 z "},"Å":{"ha":1111,"x_min":200,"x_max":911,"o":"m 204 386 l 354 242 l 354 -99 l 204 -235 l 204 386 m 911 -235 l 761 -92 l 761 250 l 911 386 l 911 -235 m 365 336 q 267 413 317 375 l 365 486 l 744 486 l 842 413 l 744 336 l 365 336 m 244 1115 l 865 1115 l 728 965 l 388 965 l 244 1115 m 200 435 l 200 1056 l 350 921 l 350 576 l 200 435 m 907 1056 l 907 435 l 757 569 l 757 913 l 907 1056 m 497 1353 l 674 1353 l 674 1176 l 497 1176 l 497 1353 z "},"Æ":{"ha":1111,"x_min":-49,"x_max":1160,"o":"m 538 -296 l 681 -146 l 1024 -146 l 1160 -296 l 538 -296 m 494 386 l 643 242 l 643 -99 l 494 -235 l 494 386 m 656 336 q 558 413 607 376 l 656 486 l 1035 486 l 1132 413 l 1035 336 l 656 336 m 535 1115 l 1157 1115 l 1021 965 l 676 965 l 535 1115 m 493 435 l 493 1056 l 643 921 l 643 576 l 493 435 m 164 178 l -49 -297 l -49 56 l 431 1122 l 431 772 l 215 292 l 340 292 l 438 218 l 340 142 l 211 142 l 164 178 z "},"Ç":{"ha":1111,"x_min":222,"x_max":889,"o":"m 267 -296 l 410 -146 l 476 -146 l 444 -200 l 597 -289 l 679 -146 l 753 -146 l 889 -296 l 267 -296 m 226 386 l 375 242 l 375 -99 l 226 -235 l 226 386 m 265 1115 l 885 1115 l 750 965 l 407 965 l 265 1115 m 222 435 l 222 1056 l 371 921 l 371 576 l 222 435 m 679 -146 l 768 8 l 615 96 l 476 -146 l 679 -146 z "},"È":{"ha":1111,"x_min":222,"x_max":889,"o":"m 267 -296 l 410 -146 l 753 -146 l 889 -296 l 267 -296 m 226 386 l 375 242 l 375 -99 l 226 -235 l 226 386 m 386 336 q 289 413 335 376 l 386 486 l 765 486 l 863 413 l 765 336 l 386 336 m 222 435 l 222 1056 l 371 921 l 371 576 l 222 435 m 518 1115 l 444 1243 l 597 1332 l 722 1115 l 885 1115 l 750 965 l 644 965 l 615 949 l 606 965 l 407 965 l 265 1115 l 518 1115 z "},"É":{"ha":1111,"x_min":222,"x_max":889,"o":"m 267 -296 l 410 -146 l 753 -146 l 889 -296 l 267 -296 m 226 386 l 375 242 l 375 -99 l 226 -235 l 226 386 m 386 336 q 289 413 335 376 l 386 486 l 765 486 l 863 413 l 765 336 l 386 336 m 222 435 l 222 1056 l 371 921 l 371 576 l 222 435 m 615 1332 l 768 1243 l 694 1115 l 885 1115 l 750 965 l 607 965 l 597 949 l 568 965 l 407 965 l 265 1115 l 490 1115 l 615 1332 z "},"Ê":{"ha":1111,"x_min":222,"x_max":889,"o":"m 267 -296 l 410 -146 l 753 -146 l 889 -296 l 267 -296 m 226 386 l 375 242 l 375 -99 l 226 -235 l 226 386 m 386 336 q 289 413 335 376 l 386 486 l 765 486 l 863 413 l 765 336 l 386 336 m 265 1115 l 885 1115 l 750 965 l 407 965 l 265 1115 m 222 435 l 222 1056 l 371 921 l 371 576 l 222 435 m 546 1317 l 611 1317 l 746 1167 l 404 1167 l 546 1317 z "},"Ë":{"ha":1111,"x_min":222,"x_max":889,"o":"m 267 -296 l 410 -146 l 753 -146 l 889 -296 l 267 -296 m 226 386 l 375 242 l 375 -99 l 226 -235 l 226 386 m 386 336 q 289 413 335 376 l 386 486 l 765 486 l 863 413 l 765 336 l 386 336 m 265 1115 l 885 1115 l 750 965 l 407 965 l 265 1115 m 222 435 l 222 1056 l 371 921 l 371 576 l 222 435 m 444 1269 l 538 1269 l 538 1183 l 444 1183 l 444 1269 m 611 1269 l 704 1269 l 704 1183 l 611 1183 l 611 1269 z "},"Ì":{"ha":1111,"x_min":311,"x_max":800,"o":"m 800 -235 l 649 -92 l 649 250 l 800 386 l 800 -235 m 796 1056 l 796 435 l 646 569 l 646 913 l 796 1056 m 465 1332 l 636 1035 l 483 949 l 311 1243 l 465 1332 z "},"Í":{"ha":1111,"x_min":311,"x_max":800,"o":"m 800 -235 l 649 -92 l 649 250 l 800 386 l 800 -235 m 796 1056 l 796 435 l 646 569 l 646 913 l 796 1056 m 483 1332 l 636 1243 l 465 949 l 311 1035 l 483 1332 z "},"Î":{"ha":1111,"x_min":385,"x_max":726,"o":"m 607 -235 l 457 -92 l 457 250 l 607 386 l 607 -235 m 604 1056 l 604 435 l 454 569 l 454 913 l 604 1056 m 526 1261 l 592 1261 l 726 1111 l 385 1111 l 526 1261 z "},"Ï":{"ha":1111,"x_min":426,"x_max":685,"o":"m 607 -235 l 458 -92 l 458 250 l 607 386 l 607 -235 m 606 1056 l 606 435 l 456 569 l 456 913 l 606 1056 m 426 1269 l 518 1269 l 518 1183 l 426 1183 l 426 1269 m 593 1269 l 685 1269 l 685 1183 l 593 1183 l 593 1269 z "},"Ð":{"ha":1111,"x_min":200,"x_max":911,"o":"m 246 -296 l 389 -146 l 732 -146 l 867 -296 l 246 -296 m 204 386 l 354 242 l 354 -99 l 204 -235 l 204 386 m 911 -235 l 761 -92 l 761 250 l 911 386 l 911 -235 m 244 1115 l 865 1115 l 728 965 l 388 965 l 244 1115 m 200 435 l 200 1056 l 350 921 l 350 576 l 200 435 m 907 1056 l 907 435 l 757 569 l 757 913 l 907 1056 z "},"Ñ":{"ha":1111,"x_min":131,"x_max":981,"o":"m 135 504 l 135 1128 l 285 990 l 285 647 l 135 504 m 981 1128 l 981 504 l 831 642 l 831 983 l 981 1128 m 131 457 l 281 314 l 281 -29 l 131 -165 l 131 457 m 976 -165 l 826 -21 l 826 321 l 976 457 l 976 -165 m 356 717 l 356 999 l 750 335 l 750 51 l 356 717 m 378 1169 q 281 1246 329 1210 l 378 1319 l 757 1319 l 854 1246 l 757 1169 l 378 1169 z "},"Ò":{"ha":1111,"x_min":200,"x_max":911,"o":"m 246 -296 l 389 -146 l 732 -146 l 867 -296 l 246 -296 m 204 386 l 354 242 l 354 -99 l 204 -235 l 204 386 m 911 -235 l 761 -92 l 761 250 l 911 386 l 911 -235 m 200 435 l 200 1056 l 350 921 l 350 576 l 200 435 m 907 1056 l 907 435 l 757 569 l 757 913 l 907 1056 m 497 1115 l 424 1243 l 575 1332 l 700 1115 l 865 1115 l 728 965 l 624 965 l 594 949 l 585 965 l 388 965 l 244 1115 l 497 1115 z "},"Ó":{"ha":1111,"x_min":200,"x_max":911,"o":"m 246 -296 l 389 -146 l 732 -146 l 867 -296 l 246 -296 m 204 386 l 354 242 l 354 -99 l 204 -235 l 204 386 m 911 -235 l 761 -92 l 761 250 l 911 386 l 911 -235 m 200 435 l 200 1056 l 350 921 l 350 576 l 200 435 m 907 1056 l 907 435 l 757 569 l 757 913 l 907 1056 m 594 1332 l 746 1243 l 672 1115 l 865 1115 l 728 965 l 585 965 l 575 949 l 546 965 l 388 965 l 244 1115 l 469 1115 l 594 1332 z "},"Ô":{"ha":1111,"x_min":200,"x_max":911,"o":"m 246 -296 l 389 -146 l 732 -146 l 867 -296 l 246 -296 m 204 386 l 354 242 l 354 -99 l 204 -235 l 204 386 m 911 -235 l 761 -92 l 761 250 l 911 386 l 911 -235 m 244 1115 l 865 1115 l 728 965 l 388 965 l 244 1115 m 200 435 l 200 1056 l 350 921 l 350 576 l 200 435 m 907 1056 l 907 435 l 757 569 l 757 913 l 907 1056 m 526 1317 l 589 1317 l 726 1167 l 383 1167 l 526 1317 z "},"Õ":{"ha":1111,"x_min":200,"x_max":911,"o":"m 246 -296 l 389 -146 l 732 -146 l 867 -296 l 246 -296 m 204 386 l 354 242 l 354 -99 l 204 -235 l 204 386 m 911 -235 l 761 -92 l 761 250 l 911 386 l 911 -235 m 244 1115 l 865 1115 l 728 965 l 388 965 l 244 1115 m 200 435 l 200 1056 l 350 921 l 350 576 l 200 435 m 907 1056 l 907 435 l 757 569 l 757 913 l 907 1056 m 365 1169 q 267 1246 317 1208 l 365 1319 l 744 1319 l 842 1246 l 744 1169 l 365 1169 z "},"Ö":{"ha":1111,"x_min":200,"x_max":911,"o":"m 246 -296 l 389 -146 l 732 -146 l 867 -296 l 246 -296 m 204 386 l 354 242 l 354 -99 l 204 -235 l 204 386 m 911 -235 l 761 -92 l 761 250 l 911 386 l 911 -235 m 244 1115 l 865 1115 l 728 965 l 388 965 l 244 1115 m 200 435 l 200 1056 l 350 921 l 350 576 l 200 435 m 907 1056 l 907 435 l 757 569 l 757 913 l 907 1056 m 424 1269 l 515 1269 l 515 1183 l 424 1183 l 424 1269 m 589 1269 l 682 1269 l 682 1183 l 589 1183 l 589 1269 z "},"×":{"ha":1111,"x_min":247,"x_max":864,"o":"m 247 675 l 247 926 l 556 539 l 864 926 l 864 675 l 657 413 l 864 153 l 864 -103 l 556 286 l 247 -103 l 247 153 l 454 413 l 247 675 z "},"Ø":{"ha":1111,"x_min":150,"x_max":961,"o":"m 249 -296 l 393 -146 l 735 -146 l 871 -296 l 249 -296 m 914 -235 l 764 -92 l 764 250 l 914 386 l 914 -235 m 247 1115 l 867 1115 l 732 965 l 390 965 l 247 1115 m 204 435 l 204 1056 l 354 921 l 354 576 l 204 435 m 911 879 l 961 926 l 961 675 l 911 626 l 911 435 l 807 528 l 357 96 l 357 -99 l 207 -235 l 207 -49 l 150 -103 l 150 153 l 207 207 l 207 386 l 300 296 l 761 736 l 761 913 l 911 1056 l 911 879 z "},"Ù":{"ha":1111,"x_min":200,"x_max":911,"o":"m 246 -296 l 389 -146 l 732 -146 l 867 -296 l 246 -296 m 204 386 l 354 242 l 354 -99 l 204 -235 l 204 386 m 911 -235 l 761 -92 l 761 250 l 911 386 l 911 -235 m 200 435 l 200 1056 l 350 921 l 350 576 l 200 435 m 907 1056 l 907 435 l 757 569 l 757 913 l 907 1056 m 575 1332 l 746 1035 l 594 949 l 424 1243 l 575 1332 z "},"Ú":{"ha":1111,"x_min":200,"x_max":911,"o":"m 246 -296 l 389 -146 l 732 -146 l 867 -296 l 246 -296 m 204 386 l 354 242 l 354 -99 l 204 -235 l 204 386 m 911 -235 l 761 -92 l 761 250 l 911 386 l 911 -235 m 200 435 l 200 1056 l 350 921 l 350 576 l 200 435 m 907 1056 l 907 435 l 757 569 l 757 913 l 907 1056 m 594 1332 l 746 1243 l 575 949 l 424 1035 l 594 1332 z "},"Û":{"ha":1111,"x_min":200,"x_max":911,"o":"m 246 -296 l 389 -146 l 732 -146 l 867 -296 l 246 -296 m 204 386 l 354 242 l 354 -99 l 204 -235 l 204 386 m 911 -235 l 761 -92 l 761 250 l 911 386 l 911 -235 m 200 435 l 200 1056 l 350 921 l 350 576 l 200 435 m 907 1056 l 907 435 l 757 569 l 757 913 l 907 1056 m 526 1317 l 589 1317 l 726 1167 l 383 1167 l 526 1317 z "},"Ü":{"ha":1111,"x_min":200,"x_max":911,"o":"m 246 -296 l 389 -146 l 732 -146 l 867 -296 l 246 -296 m 204 386 l 354 242 l 354 -99 l 204 -235 l 204 386 m 911 -235 l 761 -92 l 761 250 l 911 386 l 911 -235 m 200 435 l 200 1056 l 350 921 l 350 576 l 200 435 m 907 1056 l 907 435 l 757 569 l 757 913 l 907 1056 m 424 1269 l 515 1269 l 515 1183 l 424 1183 l 424 1269 m 589 1269 l 682 1269 l 682 1183 l 589 1183 l 589 1269 z "},"Ý":{"ha":1111,"x_min":247,"x_max":864,"o":"m 864 826 l 247 -187 l 247 69 l 522 521 l 586 453 l 586 625 l 864 1081 l 864 826 m 597 1332 l 750 1243 l 578 949 l 426 1035 l 597 1332 m 522 521 l 586 625 l 586 708 l 247 1081 l 247 814 l 522 521 z "},"Þ":{"ha":1111,"x_min":118,"x_max":993,"o":"m 121 386 l 269 242 l 269 -99 l 121 -235 l 121 386 m 118 435 l 118 1056 l 267 921 l 267 576 l 118 435 m 329 136 l 472 286 l 815 286 l 951 136 l 329 136 m 993 196 l 844 338 l 844 681 l 993 815 l 993 196 m 447 767 q 350 843 399 807 l 447 917 l 826 917 l 924 843 l 826 767 l 447 767 z "},"ß":{"ha":1111,"x_min":200,"x_max":911,"o":"m 246 -296 l 389 -146 l 732 -146 l 867 -296 l 246 -296 m 204 386 l 354 242 l 354 -99 l 204 -235 l 204 386 m 911 -235 l 761 -92 l 761 250 l 911 386 l 911 -235 m 365 336 q 267 413 317 375 l 365 486 l 744 486 l 842 413 l 744 336 l 365 336 m 244 1115 l 865 1115 l 728 965 l 388 965 l 244 1115 m 200 435 l 200 1056 l 350 921 l 350 576 l 200 435 m 907 1056 l 907 435 l 757 569 l 757 913 l 907 1056 z "},"à":{"ha":1111,"x_min":200,"x_max":911,"o":"m 204 386 l 354 242 l 354 -99 l 204 -235 l 204 386 m 911 -235 l 761 -92 l 761 250 l 911 386 l 911 -235 m 365 336 q 267 413 317 375 l 365 486 l 744 486 l 842 413 l 744 336 l 365 336 m 200 435 l 200 1056 l 350 921 l 350 576 l 200 435 m 907 1056 l 907 435 l 757 569 l 757 913 l 907 1056 m 497 1115 l 424 1243 l 575 1332 l 700 1115 l 865 1115 l 728 965 l 624 965 l 594 949 l 585 965 l 388 965 l 244 1115 l 497 1115 z "},"á":{"ha":1111,"x_min":200,"x_max":911,"o":"m 204 386 l 354 242 l 354 -99 l 204 -235 l 204 386 m 911 -235 l 761 -92 l 761 250 l 911 386 l 911 -235 m 365 336 q 267 413 317 375 l 365 486 l 744 486 l 842 413 l 744 336 l 365 336 m 200 435 l 200 1056 l 350 921 l 350 576 l 200 435 m 907 1056 l 907 435 l 757 569 l 757 913 l 907 1056 m 594 1332 l 746 1243 l 672 1115 l 865 1115 l 728 965 l 585 965 l 575 949 l 546 965 l 388 965 l 244 1115 l 469 1115 l 594 1332 z "},"â":{"ha":1111,"x_min":200,"x_max":911,"o":"m 204 386 l 354 242 l 354 -99 l 204 -235 l 204 386 m 911 -235 l 761 -92 l 761 250 l 911 386 l 911 -235 m 365 336 q 267 413 317 375 l 365 486 l 744 486 l 842 413 l 744 336 l 365 336 m 244 1115 l 865 1115 l 728 965 l 388 965 l 244 1115 m 200 435 l 200 1056 l 350 921 l 350 576 l 200 435 m 907 1056 l 907 435 l 757 569 l 757 913 l 907 1056 m 526 1317 l 589 1317 l 726 1167 l 383 1167 l 526 1317 z "},"ã":{"ha":1111,"x_min":200,"x_max":911,"o":"m 204 386 l 354 242 l 354 -99 l 204 -235 l 204 386 m 911 -235 l 761 -92 l 761 250 l 911 386 l 911 -235 m 365 336 q 267 413 317 375 l 365 486 l 744 486 l 842 413 l 744 336 l 365 336 m 244 1115 l 865 1115 l 728 965 l 388 965 l 244 1115 m 200 435 l 200 1056 l 350 921 l 350 576 l 200 435 m 907 1056 l 907 435 l 757 569 l 757 913 l 907 1056 m 365 1169 q 267 1246 317 1208 l 365 1319 l 744 1319 l 842 1246 l 744 1169 l 365 1169 z "},"ä":{"ha":1111,"x_min":200,"x_max":911,"o":"m 204 386 l 354 242 l 354 -99 l 204 -235 l 204 386 m 911 -235 l 761 -92 l 761 250 l 911 386 l 911 -235 m 365 336 q 267 413 317 375 l 365 486 l 744 486 l 842 413 l 744 336 l 365 336 m 244 1115 l 865 1115 l 728 965 l 388 965 l 244 1115 m 200 435 l 200 1056 l 350 921 l 350 576 l 200 435 m 907 1056 l 907 435 l 757 569 l 757 913 l 907 1056 m 424 1269 l 515 1269 l 515 1183 l 424 1183 l 424 1269 m 589 1269 l 682 1269 l 682 1183 l 589 1183 l 589 1269 z "},"å":{"ha":1111,"x_min":200,"x_max":911,"o":"m 204 386 l 354 242 l 354 -99 l 204 -235 l 204 386 m 911 -235 l 761 -92 l 761 250 l 911 386 l 911 -235 m 365 336 q 267 413 317 375 l 365 486 l 744 486 l 842 413 l 744 336 l 365 336 m 244 1115 l 865 1115 l 728 965 l 388 965 l 244 1115 m 200 435 l 200 1056 l 350 921 l 350 576 l 200 435 m 907 1056 l 907 435 l 757 569 l 757 913 l 907 1056 m 497 1353 l 674 1353 l 674 1176 l 497 1176 l 497 1353 z "},"æ":{"ha":1111,"x_min":-56,"x_max":1167,"o":"m -51 386 l 97 242 l 97 -99 l -51 -235 l -51 386 m 108 336 q 11 413 57 376 l 108 486 l 488 486 l 500 476 l 500 435 l 525 458 l 575 419 l 626 457 l 651 435 l 651 476 l 664 486 l 1043 486 l 1140 413 l 1043 336 l 664 336 l 654 343 l 654 386 l 629 364 q 575 406 625 367 l 525 365 l 576 315 l 504 250 l 504 349 l 488 336 l 108 336 m -12 1115 l 1163 1115 l 1028 965 l 685 965 l 651 1000 l 651 1056 l 624 1029 l 576 1081 l 529 1029 l 500 1056 l 500 996 l 472 965 l 129 965 l -12 1115 m -56 435 l -56 1056 l 93 921 l 93 576 l -56 435 m 654 -181 l 654 343 l 629 364 l 576 315 l 653 242 l 653 -99 l 581 -165 l 628 -210 l 654 -181 m 654 -181 l 688 -146 l 1031 -146 l 1167 -296 l 544 -296 l 628 -210 l 654 -235 l 654 -181 m 504 -92 l 581 -165 l 504 -235 l 504 -92 m 626 457 l 651 476 l 651 1000 l 624 1029 l 578 985 l 529 1029 l 500 996 l 500 476 l 525 458 l 574 506 l 626 457 z "},"ç":{"ha":1111,"x_min":222,"x_max":889,"o":"m 267 -296 l 410 -146 l 476 -146 l 444 -200 l 597 -289 l 679 -146 l 753 -146 l 889 -296 l 267 -296 m 226 386 l 375 242 l 375 -99 l 226 -235 l 226 386 m 265 1115 l 885 1115 l 750 965 l 407 965 l 265 1115 m 222 435 l 222 1056 l 371 921 l 371 576 l 222 435 m 679 -146 l 768 8 l 615 96 l 476 -146 l 679 -146 z "},"è":{"ha":1111,"x_min":222,"x_max":889,"o":"m 267 -296 l 410 -146 l 753 -146 l 889 -296 l 267 -296 m 226 386 l 375 242 l 375 -99 l 226 -235 l 226 386 m 386 336 q 289 413 335 376 l 386 486 l 765 486 l 863 413 l 765 336 l 386 336 m 222 435 l 222 1056 l 371 921 l 371 576 l 222 435 m 518 1115 l 444 1243 l 597 1332 l 722 1115 l 885 1115 l 750 965 l 644 965 l 615 949 l 606 965 l 407 965 l 265 1115 l 518 1115 z "},"é":{"ha":1111,"x_min":222,"x_max":889,"o":"m 267 -296 l 410 -146 l 753 -146 l 889 -296 l 267 -296 m 226 386 l 375 242 l 375 -99 l 226 -235 l 226 386 m 386 336 q 289 413 335 376 l 386 486 l 765 486 l 863 413 l 765 336 l 386 336 m 222 435 l 222 1056 l 371 921 l 371 576 l 222 435 m 615 1332 l 768 1243 l 694 1115 l 885 1115 l 750 965 l 607 965 l 597 949 l 568 965 l 407 965 l 265 1115 l 490 1115 l 615 1332 z "},"ê":{"ha":1111,"x_min":222,"x_max":889,"o":"m 267 -296 l 410 -146 l 753 -146 l 889 -296 l 267 -296 m 226 386 l 375 242 l 375 -99 l 226 -235 l 226 386 m 386 336 q 289 413 335 376 l 386 486 l 765 486 l 863 413 l 765 336 l 386 336 m 265 1115 l 885 1115 l 750 965 l 407 965 l 265 1115 m 222 435 l 222 1056 l 371 921 l 371 576 l 222 435 m 546 1331 l 611 1331 l 746 1181 l 404 1181 l 546 1331 z "},"ë":{"ha":1111,"x_min":222,"x_max":889,"o":"m 267 -296 l 410 -146 l 753 -146 l 889 -296 l 267 -296 m 226 386 l 375 242 l 375 -99 l 226 -235 l 226 386 m 386 336 q 289 413 335 376 l 386 486 l 765 486 l 863 413 l 765 336 l 386 336 m 265 1115 l 885 1115 l 750 965 l 407 965 l 265 1115 m 222 435 l 222 1056 l 371 921 l 371 576 l 222 435 m 444 1269 l 538 1269 l 538 1183 l 444 1183 l 444 1269 m 611 1269 l 704 1269 l 704 1183 l 611 1183 l 611 1269 z "},"ì":{"ha":1111,"x_min":311,"x_max":800,"o":"m 800 -235 l 649 -92 l 649 250 l 800 386 l 800 -235 m 796 1056 l 796 435 l 646 569 l 646 913 l 796 1056 m 465 1332 l 636 1035 l 483 949 l 311 1243 l 465 1332 z "},"í":{"ha":1111,"x_min":311,"x_max":800,"o":"m 800 -235 l 649 -92 l 649 250 l 800 386 l 800 -235 m 796 1056 l 796 435 l 646 569 l 646 913 l 796 1056 m 483 1332 l 636 1243 l 465 949 l 311 1035 l 483 1332 z "},"î":{"ha":1111,"x_min":385,"x_max":726,"o":"m 621 -235 l 469 -92 l 469 250 l 621 386 l 621 -235 m 617 1056 l 617 435 l 468 569 l 468 913 l 617 1056 m 526 1261 l 592 1261 l 726 1111 l 385 1111 l 526 1261 z "},"ï":{"ha":1111,"x_min":426,"x_max":685,"o":"m 607 -235 l 458 -92 l 458 250 l 607 386 l 607 -235 m 606 1056 l 606 435 l 456 569 l 456 913 l 606 1056 m 426 1242 l 518 1242 l 518 1157 l 426 1157 l 426 1242 m 593 1242 l 685 1242 l 685 1157 l 593 1157 l 593 1242 z "},"ð":{"ha":1111,"x_min":200,"x_max":911,"o":"m 246 -296 l 389 -146 l 732 -146 l 867 -296 l 246 -296 m 204 386 l 354 242 l 354 -99 l 204 -235 l 204 386 m 911 -235 l 761 -92 l 761 250 l 911 386 l 911 -235 m 244 1115 l 865 1115 l 728 965 l 388 965 l 244 1115 m 200 435 l 200 1056 l 350 921 l 350 576 l 200 435 m 907 1056 l 907 435 l 757 569 l 757 913 l 907 1056 m 365 1169 q 267 1246 317 1208 l 365 1319 l 744 1319 l 842 1246 l 744 1169 l 365 1169 z "},"ñ":{"ha":1111,"x_min":131,"x_max":981,"o":"m 135 504 l 135 1128 l 285 990 l 285 647 l 135 504 m 981 1128 l 981 504 l 831 642 l 831 983 l 981 1128 m 131 457 l 281 314 l 281 -29 l 131 -165 l 131 457 m 976 -165 l 826 -21 l 826 321 l 976 457 l 976 -165 m 356 717 l 356 999 l 750 335 l 750 51 l 356 717 m 365 1169 q 267 1246 317 1208 l 365 1319 l 744 1319 l 842 1246 l 744 1169 l 365 1169 z "},"ò":{"ha":1111,"x_min":200,"x_max":911,"o":"m 246 -296 l 389 -146 l 732 -146 l 867 -296 l 246 -296 m 204 386 l 354 242 l 354 -99 l 204 -235 l 204 386 m 911 -235 l 761 -92 l 761 250 l 911 386 l 911 -235 m 200 435 l 200 1056 l 350 921 l 350 576 l 200 435 m 907 1056 l 907 435 l 757 569 l 757 913 l 907 1056 m 497 1115 l 424 1243 l 575 1332 l 700 1115 l 865 1115 l 728 965 l 624 965 l 594 949 l 585 965 l 388 965 l 244 1115 l 497 1115 z "},"ó":{"ha":1111,"x_min":200,"x_max":911,"o":"m 246 -296 l 389 -146 l 732 -146 l 867 -296 l 246 -296 m 204 386 l 354 242 l 354 -99 l 204 -235 l 204 386 m 911 -235 l 761 -92 l 761 250 l 911 386 l 911 -235 m 200 435 l 200 1056 l 350 921 l 350 576 l 200 435 m 907 1056 l 907 435 l 757 569 l 757 913 l 907 1056 m 594 1332 l 746 1243 l 672 1115 l 865 1115 l 728 965 l 585 965 l 575 949 l 546 965 l 388 965 l 244 1115 l 469 1115 l 594 1332 z "},"ô":{"ha":1111,"x_min":200,"x_max":911,"o":"m 246 -296 l 389 -146 l 732 -146 l 867 -296 l 246 -296 m 204 386 l 354 242 l 354 -99 l 204 -235 l 204 386 m 911 -235 l 761 -92 l 761 250 l 911 386 l 911 -235 m 244 1115 l 865 1115 l 728 965 l 388 965 l 244 1115 m 200 435 l 200 1056 l 350 921 l 350 576 l 200 435 m 907 1056 l 907 435 l 757 569 l 757 913 l 907 1056 m 526 1317 l 589 1317 l 726 1167 l 383 1167 l 526 1317 z "},"õ":{"ha":1111,"x_min":200,"x_max":911,"o":"m 246 -296 l 389 -146 l 732 -146 l 867 -296 l 246 -296 m 204 386 l 354 242 l 354 -99 l 204 -235 l 204 386 m 911 -235 l 761 -92 l 761 250 l 911 386 l 911 -235 m 244 1115 l 865 1115 l 728 965 l 388 965 l 244 1115 m 200 435 l 200 1056 l 350 921 l 350 576 l 200 435 m 907 1056 l 907 435 l 757 569 l 757 913 l 907 1056 m 365 1169 q 267 1246 317 1208 l 365 1319 l 744 1319 l 842 1246 l 744 1169 l 365 1169 z "},"ö":{"ha":1111,"x_min":200,"x_max":911,"o":"m 246 -296 l 389 -146 l 732 -146 l 867 -296 l 246 -296 m 204 386 l 354 242 l 354 -99 l 204 -235 l 204 386 m 911 -235 l 761 -92 l 761 250 l 911 386 l 911 -235 m 244 1115 l 865 1115 l 728 965 l 388 965 l 244 1115 m 200 435 l 200 1056 l 350 921 l 350 576 l 200 435 m 907 1056 l 907 435 l 757 569 l 757 913 l 907 1056 m 424 1269 l 515 1269 l 515 1183 l 424 1183 l 424 1269 m 589 1269 l 682 1269 l 682 1183 l 589 1183 l 589 1269 z "},"÷":{"ha":1111,"x_min":268,"x_max":843,"o":"m 365 336 q 268 413 317 376 l 365 486 l 746 486 l 843 413 l 746 336 l 365 336 m 510 285 l 604 285 l 604 190 l 510 190 l 510 285 m 510 632 l 604 632 l 604 538 l 510 538 l 510 632 z "},"ø":{"ha":1111,"x_min":150,"x_max":961,"o":"m 249 -296 l 393 -146 l 735 -146 l 871 -296 l 249 -296 m 914 -235 l 764 -92 l 764 250 l 914 386 l 914 -235 m 247 1115 l 867 1115 l 732 965 l 390 965 l 247 1115 m 204 435 l 204 1056 l 354 921 l 354 576 l 204 435 m 911 879 l 961 926 l 961 675 l 911 626 l 911 435 l 807 528 l 357 96 l 357 -99 l 207 -235 l 207 -49 l 150 -103 l 150 153 l 207 207 l 207 386 l 300 296 l 761 736 l 761 913 l 911 1056 l 911 879 z "},"ù":{"ha":1111,"x_min":200,"x_max":911,"o":"m 246 -296 l 389 -146 l 732 -146 l 867 -296 l 246 -296 m 204 386 l 354 242 l 354 -99 l 204 -235 l 204 386 m 911 -235 l 761 -92 l 761 250 l 911 386 l 911 -235 m 200 435 l 200 1056 l 350 921 l 350 576 l 200 435 m 907 1056 l 907 435 l 757 569 l 757 913 l 907 1056 m 575 1332 l 746 1035 l 594 949 l 424 1243 l 575 1332 z "},"ú":{"ha":1111,"x_min":200,"x_max":911,"o":"m 246 -296 l 389 -146 l 732 -146 l 867 -296 l 246 -296 m 204 386 l 354 242 l 354 -99 l 204 -235 l 204 386 m 911 -235 l 761 -92 l 761 250 l 911 386 l 911 -235 m 200 435 l 200 1056 l 350 921 l 350 576 l 200 435 m 907 1056 l 907 435 l 757 569 l 757 913 l 907 1056 m 594 1332 l 746 1243 l 575 949 l 424 1035 l 594 1332 z "},"û":{"ha":1111,"x_min":200,"x_max":911,"o":"m 246 -296 l 389 -146 l 732 -146 l 867 -296 l 246 -296 m 204 386 l 354 242 l 354 -99 l 204 -235 l 204 386 m 911 -235 l 761 -92 l 761 250 l 911 386 l 911 -235 m 200 435 l 200 1056 l 350 921 l 350 576 l 200 435 m 907 1056 l 907 435 l 757 569 l 757 913 l 907 1056 m 526 1163 l 589 1163 l 726 1014 l 383 1014 l 526 1163 z "},"ü":{"ha":1111,"x_min":200,"x_max":911,"o":"m 246 -296 l 389 -146 l 732 -146 l 867 -296 l 246 -296 m 204 386 l 354 242 l 354 -99 l 204 -235 l 204 386 m 911 -235 l 761 -92 l 761 250 l 911 386 l 911 -235 m 200 435 l 200 1056 l 350 921 l 350 576 l 200 435 m 907 1056 l 907 435 l 757 569 l 757 913 l 907 1056 m 424 1269 l 515 1269 l 515 1183 l 424 1183 l 424 1269 m 589 1269 l 682 1269 l 682 1183 l 589 1183 l 589 1269 z "},"ý":{"ha":1111,"x_min":247,"x_max":864,"o":"m 864 826 l 247 -187 l 247 69 l 522 521 l 586 453 l 586 625 l 864 1081 l 864 826 m 597 1332 l 750 1243 l 578 949 l 426 1035 l 597 1332 m 522 521 l 586 625 l 586 708 l 247 1081 l 247 814 l 522 521 z "},"þ":{"ha":1111,"x_min":118,"x_max":993,"o":"m 121 386 l 269 242 l 269 -99 l 121 -235 l 121 386 m 118 435 l 118 1056 l 267 921 l 267 576 l 118 435 m 329 51 l 472 201 l 815 201 l 951 51 l 329 51 m 993 113 l 844 256 l 844 597 l 993 733 l 993 113 m 447 683 q 350 760 399 724 l 447 833 l 826 833 l 924 760 l 826 683 l 447 683 z "},"ÿ":{"ha":1111,"x_min":247,"x_max":864,"o":"m 864 826 l 247 -187 l 247 69 l 522 521 l 586 453 l 586 625 l 864 1081 l 864 826 m 426 1269 l 518 1269 l 518 1183 l 426 1183 l 426 1269 m 593 1269 l 685 1269 l 685 1183 l 593 1183 l 593 1269 m 522 521 l 586 625 l 586 708 l 247 1081 l 247 814 l 522 521 z "}}}
